<?xml version="1.0" encoding="utf-8"?>
<!-- Generator: Adobe Illustrator 26.0.3, SVG Export Plug-In . SVG Version: 6.00 Build 0)  -->
<svg version="1.1" id="Layer_1" xmlns="http://www.w3.org/2000/svg" xmlns:xlink="http://www.w3.org/1999/xlink" x="0px" y="0px"
	 viewBox="0 0 720 480" style="enable-background:new 0 0 720 480;" xml:space="preserve">
<style type="text/css">
	.st0{clip-path:url(#SVGID_00000121250734487483174870000009491145565126019971_);}
	.st1{fill:#260046;}
	.st2{fill:#EA4403;}
	.st3{fill:#F9BC84;}
	.st4{opacity:0.5;fill:#F9BC84;enable-background:new    ;}
	.st5{fill:#DFD9E3;}
	.st6{fill:none;stroke:#DFD9E3;stroke-width:3.202;stroke-miterlimit:10;}
	.st7{fill:none;stroke:#DFD9E3;stroke-width:3.6026;stroke-miterlimit:10;}
	.st8{fill:#FFFFFF;}
	.st9{fill:#BEB2C7;}
	.st10{fill:#E9E5EC;}
	.st11{clip-path:url(#SVGID_00000182493507099657210580000001405687878163683484_);}
	.st12{clip-path:url(#SVGID_00000112607364869467836980000000042935219615681934_);}
</style>
<g>
	<g id="Artwork">
		<g>
			<defs>
				<rect id="SVGID_1_" width="720" height="480"/>
			</defs>
			<clipPath id="SVGID_00000128459727701388981010000007112100242884838315_">
				<use xlink:href="#SVGID_1_"  style="overflow:visible;"/>
			</clipPath>
			<g style="clip-path:url(#SVGID_00000128459727701388981010000007112100242884838315_);">
				<g>
					<path class="st1" d="M514.8,172.6c6.6,20.8,11.9,41.9,12.5,64.1c0.8,27.3-8.5,56.3-30.5,72.5c-16.9,12.5-38.7,15.8-59.6,17.5
						c-19.1,1.6-38.7,2.1-57-3.4s-35.5-18-42.2-36c-4.4-11.7-4.1-24.5-3.5-37c1.8-39.7,2.4-80.6,6.2-119.7
						c2.7-27.1,11-68.2,41.1-77.9c36-31.5,85.1-15,104.9,34.9c1.6,4.1,3,8.4,4.2,12.7C497.4,124.7,507,148.4,514.8,172.6z"/>
					<path class="st2" d="M598.5,394.7l-59.6-131.2c-5.2-11.5-11.7-20.9-20.9-27.7c-6.2-4.6-14.4-7.8-21.9-9.5
						c-11.8-2.7-22.6,1.2-34.5-0.5c-6.7-1-14-3-20.8-3c-7.9,3-14.8,2.4-17.1,13.9c-8.5,42.7,54.2,31.3,76.2,46.6
						c2,7.9,4.6,47.2,6,40.4l0,0c0.2-0.7,0.9-1.2,1.6-1c0.4,0.1,0.8,0.4,0.9,0.8c0.6,1.5,1.2,3.5,2,5.7
						c7.3,20.8,23.8,67.7,41.5,87.1c9.2,10,20,18.8,32.7,13.8C598.4,424.6,604.2,407.4,598.5,394.7z"/>
					<path class="st3" d="M573.1,426.8c-12.9-2.3-21.8-14.8-19.3-27c6.4-31.2,28.5-119,31.7-131.3c0.3-1,0.5-1.9,0.7-2.9
						c1.4-7.4,0-15-3.8-21.5l0,0c-5.5-9.2-9.2-19.3-11-29.8c-0.9-5.5-1.6-11.6,0.6-11.9c7.1-0.9,10.5,18.6,13,18.3
						c5-0.7,6-20.1,6.4-37.5c0.4-13.6,2.5-25.3,6.3-25.3c8.4,0.1,0.6,41.8,3.9,42c1.8,0.1,2-6.4,3-19.1c1.2-14.6,2.7-30.8,6.8-30.7
						c10.2,0-1,53.1,3,53.4c1.8,0.2,2.5-10.1,3.8-21.1c1.4-11.2,3.1-22.1,7.1-21.9c8.7,0.4-2,50.3-0.1,50.6
						c1.6,0.3,3.9-8.1,5.8-16.9c1.8-8.5,4.5-16.7,7.1-16.5c7.9,0.5-3,42.7-9.1,55.3c-1.7,3.4-5.2,10.2-8.6,15.8
						c-4,6.7-6,14-7.4,21.9l-12.5,134.5C599.5,418.5,586.2,429.2,573.1,426.8z"/>
					<path class="st1" d="M388.3,264.3c6.5,4,13.8,6,21.2,7c8.7,1.2,18,1.8,26.7,1c8.4-1,16.7-2.9,24.7-5.6
						c6.9-2.3,13.4-5.4,18.5-10.7c0.5-0.5-0.3-1.2-0.7-0.7c-5.3,5.6-12.3,8.7-19.6,10.9c-7.8,2.4-16,4.6-24.1,5.2
						c-7.8,0.4-15.5,0.2-23.2-0.8c-8.1-0.9-16-2.8-23-7.1C388.3,263.1,387.8,263.9,388.3,264.3L388.3,264.3z"/>
					<path class="st3" d="M450.4,222.9c4-2-45.5-3-60.6,1.1l-16.5,10.1l4.6,3.9c12.1,17.4,33.2,21.4,46.7,21.4
						c14.6,0,33.6-5.1,46.2-21.7l0,0L450.4,222.9z"/>
					<polygon class="st3" points="438.7,194.5 397.9,194.9 397.9,176.8 438.7,176.8 					"/>
					<path class="st3" d="M393,190.6c4.5,13.4,9.2,15.8-3,41.3c8.7,14.7,52.1,15.5,57.7,0c-8.4-21.4-3.9-26.9-1.5-41.3
						S388.5,177.2,393,190.6z"/>
					<path class="st4" d="M392,191.1c2.4,7.1,7.1,11.4,5.4,19.6c-0.4,1.7,12.2,9.7,23.3,9.9c11.3,0.2,22.2-7.1,22.1-9.6
						c-0.3-8.4,3.7-14.3,4.7-20.1C449.9,176.6,387.6,177.8,392,191.1z"/>
					
						<ellipse transform="matrix(0.3257 -0.9455 0.9455 0.3257 151.027 511.2689)" class="st3" cx="434" cy="149.7" rx="65.4" ry="38.9"/>
					
						<ellipse transform="matrix(0.9302 -0.367 0.367 0.9302 -26.7413 159.4884)" class="st3" cx="406.1" cy="150.1" rx="39.5" ry="66.3"/>
					
						<ellipse transform="matrix(0.9659 -0.2588 0.2588 0.9659 -18.7572 112.9666)" class="st3" cx="419.7" cy="127.7" rx="56.3" ry="60.5"/>
					
						<ellipse transform="matrix(0.2421 -0.9703 0.9703 0.2421 220.0017 568.2688)" class="st3" cx="473.7" cy="143.3" rx="18.5" ry="10"/>
					
						<ellipse transform="matrix(0.9703 -0.2421 0.2421 0.9703 -23.852 92.6267)" class="st3" cx="365" cy="143.4" rx="10" ry="18.5"/>
					<path class="st1" d="M476.5,125.4c-23.8-45.8-71.9-34.3-78-65C442.7,31.9,505.3,77,476.5,125.4z"/>
					<path class="st1" d="M362.2,125.4c16.6-14.5,14.1-44.4,49.3-56.8C373.6,47.5,338.5,98.4,362.2,125.4z"/>
					<path class="st5" d="M365.2,120.1h-10.1c-2.8,0-5.1,8.7-5.1,19.4s2.3,19.5,5.1,19.5h10.1c2.8,0,5.1-8.7,5.1-19.4
						S368,120.1,365.2,120.1z"/>
					<path class="st6" d="M360.1,155.6c0,0,1.5,37.5,48.9,37.5"/>
					<ellipse class="st1" cx="407" cy="193.1" rx="3.2" ry="3.7"/>
					<path class="st7" d="M360.1,120.1c0,0,2.5-67,55.3-67s61.1,72.3,61.1,72.3"/>
					<path class="st8" d="M241.6,197.1c3.6-0.2,11.8-19.4,11.6-22.9s-25.2-2.7-25.1,1.1S238,197.2,241.6,197.1"/>
					<path class="st8" d="M95.4,41.1h174c9,0,16.3,7.3,16.3,16.3V161c0,9-7.3,16.3-16.3,16.3h-174c-9,0-16.3-7.3-16.3-16.3V57.4
						C79.1,48.4,86.4,41.1,95.4,41.1z"/>
					<path class="st9" d="M106.5,68.7H246c4,0,7.2,3.2,7.2,7.2v0c0,4-3.2,7.2-7.2,7.2H106.5c-4,0-7.2-3.2-7.2-7.2v0
						C99.3,71.9,102.5,68.7,106.5,68.7z"/>
					<path class="st9" d="M106.9,136.6h139.3c4,0,7.2,3.2,7.2,7.2v0c0,4-3.2,7.2-7.2,7.2H106.9c-4,0-7.2-3.2-7.2-7.2v0
						C99.7,139.8,102.9,136.6,106.9,136.6z"/>
					<path class="st9" d="M106.7,102.6h121.4c4,0,7.2,3.2,7.2,7.2v0c0,4-3.2,7.2-7.2,7.2H106.7c-4,0-7.2-3.2-7.2-7.2v0
						C99.5,105.9,102.7,102.6,106.7,102.6z"/>
					<g>
						<path class="st1" d="M469.9,307.7c-0.9-3.5-10.2-46.2-16.8-70.1h-64.9c-1.4,21.8-0.2,55.9-4.5,105.1
							c-5.6,65-12.9,70.7-19.5,125.3c-0.5,4-1,8-1.4,12H473c0.5-6.1,0.9-12.2,1.4-18.2C478.1,409.4,483.5,359.1,469.9,307.7z"/>
						<path class="st2" d="M383.7,342.8c4.2-49.2,3-83.3,4.5-105.1c0.2-4.6,0.8-9.2,1.6-13.7c0,0-49.8,9.4-69.8,28.8
							c-31.5,30.7-2.9,111-45.1,197.5c-5.2,10.6-10.6,20.5-15.9,29.7h67.9c6-31.5,8.5-63.5,7.2-95.5c0-0.7,1-0.6,1,0
							c0.7,17.7,2.4,35.5,0.8,53.1c-1.3,14.2-2.9,28.4-5.1,42.4h32.1c0.5-3.9,1-7.9,1.4-12C370.8,413.5,378.1,407.8,383.7,342.8z"/>
						<path class="st1" d="M335.2,384.5c0-0.6-1-0.7-1,0c1.2,32-1.2,64.1-7.2,95.5h3.8c2.3-14,3.9-28.2,5.2-42.4
							C337.5,420,335.8,402.2,335.2,384.5z"/>
						<path class="st2" d="M512.7,246.6c11.7-26.9-65.4-24.8-65.4-24.8c1,0,3.1,6.4,5.7,15.8c6.5,23.8,15.9,66.6,16.8,70.1
							c13.6,51.4,8.3,101.6,4.5,154.1c-0.4,6.1-0.9,12.1-1.4,18.2h72.6C531.3,398.7,499.7,276.7,512.7,246.6z"/>
					</g>
					<g>
						<g>
							<path class="st10" d="M471.3,268.4c-0.3,0-0.6,0.3-0.6,0.6c0,0.3,0.2,0.5,0.5,0.6l14.9,3.4c1.2-2.8,1.2-5.3-0.8-5.9
								L471.3,268.4z"/>
							<g>
								<defs>
									<path id="SVGID_00000103254400234923126000000001486881663695950504_" d="M471.3,268.4c-0.3,0-0.6,0.3-0.6,0.6
										c0,0.3,0.2,0.5,0.5,0.6l14.9,3.4c1.2-2.8,1.2-5.3-0.8-5.9L471.3,268.4z"/>
								</defs>
								<clipPath id="SVGID_00000019648527884309801680000012406171556915413654_">
									<use xlink:href="#SVGID_00000103254400234923126000000001486881663695950504_"  style="overflow:visible;"/>
								</clipPath>
								<g style="clip-path:url(#SVGID_00000019648527884309801680000012406171556915413654_);">
									
										<rect x="471.3" y="261.8" transform="matrix(0.6428 -0.766 0.766 0.6428 -35.7987 463.3801)" class="st10" width="15.3" height="16.6"/>
								</g>
							</g>
						</g>
						<g>
							<path class="st10" d="M498.5,266l-13.1,1.1c2,0.6,2,3.1,0.8,5.9l-4.2,9c-0.2,0.3-0.1,0.7,0.2,0.8c0.3,0.1,0.6,0.1,0.8-0.1
								l16-15.7c0.2-0.3,0.2-0.6-0.1-0.9C498.8,266.1,498.7,266,498.5,266L498.5,266"/>
							<g>
								<defs>
									<path id="SVGID_00000025436159891325072880000010611710650934074511_" d="M498.5,266l-13.1,1.1c2,0.6,2,3.1,0.8,5.9l-4.2,9
										c-0.2,0.3-0.1,0.7,0.2,0.8c0.3,0.1,0.6,0.1,0.8-0.1l16-15.7c0.2-0.3,0.2-0.6-0.1-0.9C498.8,266.1,498.7,266,498.5,266
										L498.5,266"/>
								</defs>
								<clipPath id="SVGID_00000181797464660417224460000016137870911678363305_">
									<use xlink:href="#SVGID_00000025436159891325072880000010611710650934074511_"  style="overflow:visible;"/>
								</clipPath>
								<g style="clip-path:url(#SVGID_00000181797464660417224460000016137870911678363305_);">
									
										<rect x="481.2" y="265" transform="matrix(8.715574e-02 -0.9962 0.9962 8.715574e-02 174.2532 739.298)" class="st10" width="18.6" height="19.1"/>
								</g>
							</g>
						</g>
					</g>
				</g>
			</g>
		</g>
	</g>
</g>
</svg>
